<?xml version="1.0" encoding="UTF-8" standalone="no"?>
<svg
   xmlns:dc="http://purl.org/dc/elements/1.1/"
   xmlns:cc="http://creativecommons.org/ns#"
   xmlns:rdf="http://www.w3.org/1999/02/22-rdf-syntax-ns#"
   xmlns:svg="http://www.w3.org/2000/svg"
   xmlns="http://www.w3.org/2000/svg"
   xmlns:sodipodi="http://sodipodi.sourceforge.net/DTD/sodipodi-0.dtd"
   xmlns:inkscape="http://www.inkscape.org/namespaces/inkscape"
   width="8.809454mm"
   height="25.426544mm"
   viewBox="0 0 8.809454 25.426544"
   version="1.1"
   id="svg4607"
   inkscape:version="1.0.2 (e86c870879, 2021-01-15)"
   sodipodi:docname="chubu-full.svg">
  <defs
     id="defs4601">
    <clipPath
       clipPathUnits="userSpaceOnUse"
       id="clipPath2830">
      <path
         d="m 224.648,347.224 h 32.721 v -38.662 h -32.721 z"
         id="path2828" />
    </clipPath>
    <clipPath
       clipPathUnits="userSpaceOnUse"
       id="clipPath2870">
      <path
         d="m 251.276,338.356 h 0.737 v -0.865 h -0.737 z"
         id="path2868" />
    </clipPath>
  </defs>
  <sodipodi:namedview
     id="base"
     pagecolor="#ffffff"
     bordercolor="#666666"
     borderopacity="1.0"
     inkscape:pageopacity="0.0"
     inkscape:pageshadow="2"
     inkscape:zoom="3.959798"
     inkscape:cx="23.541537"
     inkscape:cy="50.352313"
     inkscape:document-units="mm"
     inkscape:current-layer="g2804"
     inkscape:document-rotation="0"
     showgrid="false"
     showguides="true"
     inkscape:guide-bbox="true"
     inkscape:snap-global="false"
     inkscape:window-width="1920"
     inkscape:window-height="1016"
     inkscape:window-x="0"
     inkscape:window-y="27"
     inkscape:window-maximized="1" />
  <metadata
     id="metadata4604">
    <rdf:RDF>
      <cc:Work
         rdf:about="">
        <dc:format>image/svg+xml</dc:format>
        <dc:type
           rdf:resource="http://purl.org/dc/dcmitype/StillImage" />
        <dc:title></dc:title>
      </cc:Work>
    </rdf:RDF>
  </metadata>
  <g
     inkscape:label="Capa 1"
     inkscape:groupmode="layer"
     id="layer1"
     transform="translate(-161.37496,-162.69028)">
    <g
       id="g4536"
       transform="matrix(0.28944705,-0.20167439,-0.20167439,-0.28944705,164.78677,319.4427)">
      <g
         id="g2804"
         transform="translate(244.34132,364.2357)">
        <path
           d="m 0,0 1.523,-1.061 1.736,2.494 c 0.869,1.248 2.544,1.595 3.724,0.773 l 9.994,-6.959 c 1.176,-0.821 1.431,-2.511 0.561,-3.762 l -1.735,-2.491 1.518,-1.057 c 2.248,-1.566 -0.961,-5.557 -2.851,-4.32 -10.555,-15.155 -19.639,-28.223 -30.196,-43.382 -2.592,-3.717 -8.042,-4.443 -12.113,-1.607 l -2.637,1.837 c -4.07,2.833 -5.28,8.199 -2.691,11.917 l 24.778,35.574 5.441,7.812 C -5.039,-3.015 -2.227,1.553 0,0"
           style="fill:#000000;fill-opacity:1;fill-rule:evenodd;stroke:none"
           id="path2806" />
      </g>
      <g
         id="g2808"
         transform="translate(257.69382,348.6322)">
        <path
           d="m 0,0 -2.143,-3.076 c -0.078,-0.129 -0.16,-0.257 -0.248,-0.382 l -27.167,-39.004 c -2.475,-3.551 -7.403,-4.434 -10.955,-1.96 l -2.301,1.604 c -3.552,2.472 -4.433,7.401 -1.959,10.955 l 23.655,33.962 3.512,5.041 2.403,3.449 z M -13.109,13.598 2.002,3.07 C 2.569,2.677 2.708,1.893 2.315,1.327 1.986,0.857 1.385,0.683 0.867,0.866 l -15.652,10.902 c -0.352,0.421 -0.396,1.045 -0.068,1.52 0.394,0.562 1.179,0.702 1.744,0.31"
           style="fill:#e8eaea;fill-opacity:1;fill-rule:evenodd;stroke:none"
           id="path2810" />
      </g>
      <g
         id="g2812"
         transform="translate(257.69382,348.6322)">
        <path
           d="m 0,0 -2.143,-3.076 c -0.078,-0.129 -0.16,-0.257 -0.248,-0.382 l -27.167,-39.004 c -2.475,-3.551 -7.403,-4.434 -10.955,-1.96 l -2.301,1.604 c -3.552,2.472 -4.433,7.401 -1.959,10.955 l 23.655,33.962 3.512,5.041 2.403,3.449 1.263,-0.878 -28.645,-41.129 c -2.232,-3.201 -1.23,-7.794 2.228,-10.2 3.456,-2.407 8.109,-1.757 10.339,1.446 L -1.372,0.955 Z M -13.109,13.598 2.002,3.07 C 2.569,2.677 2.708,1.893 2.315,1.327 1.986,0.857 1.385,0.683 0.867,0.866 l -15.652,10.902 c -0.352,0.421 -0.396,1.045 -0.068,1.52 0.394,0.562 1.179,0.702 1.744,0.31"
           style="fill:#c0c1c7;fill-opacity:1;fill-rule:evenodd;stroke:none"
           id="path2814" />
      </g>
      <g
         id="g2816"
         transform="translate(256.32182,349.5872)">
        <path
           d="m 0,0 -1.354,-1.942 c -0.721,-1.037 -2.158,-1.294 -3.193,-0.573 l -8.784,6.119 c -1.034,0.72 -1.293,2.157 -0.571,3.195 l 1.353,1.941 z M -5.46,14.904 3.322,8.785 C 4.357,8.063 4.615,6.626 3.895,5.589 l -0.938,-1.344 -12.549,8.739 0.937,1.349 c 0.722,1.034 2.159,1.291 3.195,0.571"
           style="fill:#a27d14;fill-opacity:1;fill-rule:evenodd;stroke:none"
           id="path2818" />
      </g>
      <g
         id="g2820"
         transform="translate(256.32182,349.5872)">
        <path
           d="m 0,0 -1.354,-1.942 c -0.721,-1.037 -2.158,-1.294 -3.193,-0.573 l -8.784,6.119 c -1.034,0.72 -1.293,2.157 -0.571,3.195 l 1.353,1.941 0.856,-0.594 -0.995,-1.429 C -13.312,5.82 -13.087,4.58 -12.194,3.956 l 7.584,-5.282 c 0.896,-0.623 2.135,-0.402 2.758,0.493 l 0.997,1.43 z M -5.46,14.904 3.322,8.785 C 4.357,8.063 4.615,6.626 3.895,5.589 L 2.957,4.245 2.101,4.84 2.681,5.674 C 3.304,6.567 3.083,7.808 2.188,8.433 l -7.584,5.281 c -0.894,0.624 -2.137,0.401 -2.761,-0.493 l -0.579,-0.83 -0.856,0.593 0.937,1.349 c 0.722,1.034 2.159,1.291 3.195,0.571"
           style="fill:#8a7422;fill-opacity:1;fill-rule:evenodd;stroke:none"
           id="path2822" />
      </g>
      <g
         id="g2824"
         transform="translate(-11.11278,-3.256496)">
        <g
           id="g2826" />
        <g
           id="g2838">
          <g
             clip-path="url(#clipPath2830)"
             opacity="0.5"
             id="g2836">
            <g
               transform="translate(245.0068,347.2236)"
               id="g2834">
              <path
                 d="m 0,0 c 0.133,-0.95 2.392,-3.177 5.474,-5.321 3.082,-2.148 5.952,-3.496 6.888,-3.289 l -0.15,-0.437 -19.199,-27.561 c -1.808,-2.598 -6.115,-2.752 -9.571,-0.345 -3.458,2.406 -4.806,6.501 -2.997,9.098 l 19.34,27.766 z"
                 style="fill:#fbe446;fill-opacity:1;fill-rule:evenodd;stroke:none"
                 id="path2832" />
            </g>
          </g>
        </g>
      </g>
      <g
         id="g2840"
         transform="translate(233.53952,343.6771)">
        <path
           d="m 0,0 0.001,-0.001 c -0.398,-0.705 2.02,-3.183 5.452,-5.572 3.428,-2.389 6.588,-3.799 7.113,-3.181 h 10e-4 L -6.688,-36.402 c -1.778,-2.549 -6.059,-2.668 -9.515,-0.261 -3.458,2.406 -4.832,6.466 -3.056,9.016 z"
           style="fill:#c7702a;fill-opacity:1;fill-rule:evenodd;stroke:none"
           id="path2842" />
      </g>
      <g
         id="g2844"
         transform="translate(218.18752,316.0785)">
        <path
           d="m 0,0 c -0.348,0.241 -0.888,0.062 -1.209,-0.399 -0.322,-0.463 -0.302,-1.032 0.044,-1.273 0.347,-0.241 0.889,-0.064 1.211,0.4 C 0.368,-0.812 0.347,-0.242 0,0 M 3.299,1.382 C 2.976,1.606 2.477,1.449 2.185,1.03 1.895,0.612 1.919,0.087 2.242,-0.136 2.564,-0.361 3.062,-0.202 3.354,0.217 3.646,0.636 3.621,1.159 3.299,1.382 m 9.216,18.374 c -0.396,-0.505 -1.023,-0.681 -1.44,-0.389 L -2.393,0.032 c -0.85,-1.221 -0.997,-2.765 -0.547,-4.254 0.851,0.661 1.996,0.768 2.847,0.172 1.072,-0.748 1.27,-2.315 0.442,-3.506 -0.124,-0.176 -0.266,-0.337 -0.418,-0.475 2.911,-2.001 6.63,-1.702 8.286,0.674 l 13.704,19.676 c -2.545,-1.032 -5.151,-0.983 -6.864,0.172 -1.955,1.322 -2.985,4.169 -2.542,7.265 m 0.622,2.369 c -0.021,0.037 -0.043,0.075 -0.061,0.116 l -0.591,-0.849 c 0.134,-0.094 0.232,-0.225 0.287,-0.376 0.101,0.369 0.222,0.736 0.365,1.109 m 3.708,3.115 0.007,-0.005 0.058,-0.057 0.005,-0.005 0.06,-0.058 0.006,-0.006 0.058,-0.058 0.068,-0.064 0.007,-0.007 0.063,-0.058 0.005,-0.007 0.012,-0.011 c 0.134,-0.124 0.272,-0.255 0.418,-0.382 l 0.004,-0.002 c 0.88,-0.789 1.97,-1.646 3.189,-2.495 1.216,-0.847 2.401,-1.573 3.444,-2.125 0.857,-0.456 1.621,-0.796 2.23,-0.998 h 0.008 l 0.083,-0.027 0.05,-0.017 0.023,-0.006 0.059,-0.018 0.053,-0.013 0.047,-0.014 0.03,-0.009 0.01,-10e-4 0.056,-0.016 0.039,-0.009 0.018,-10e-4 C 27.006,18.76 27.054,18.747 27.1,18.74 l 0.019,-0.005 0.039,-0.006 0.047,-0.008 h 0.002 l 0.031,-0.003 0.046,-0.005 0.009,-0.002 c 0.02,-0.002 0.039,-0.004 0.056,-0.006 h 0.025 c 0.017,-0.004 0.032,-0.004 0.048,-0.003 l 0.003,-0.001 0.003,0.001 c 0.02,0 0.039,-0.002 0.058,-0.003 l 0.007,10e-4 c 0.034,0 0.067,0.002 0.097,0.007 h 0.018 c 0.016,0.002 0.029,0.004 0.043,0.004 l 0.012,0.003 c 0.011,0.004 0.022,0.006 0.035,0.01 l 0.007,0.001 c 0.027,0.008 0.054,0.017 0.079,0.027 l 0.008,0.001 c 0.01,0.007 0.023,0.013 0.033,0.019 l 0.006,0.001 c 0.008,0.005 0.02,0.013 0.028,0.02 l 0.004,0.001 c 0.01,0.005 0.018,0.014 0.027,0.023 l 0.005,0.004 c 0.007,0.009 0.016,0.015 0.023,0.024 h 0.001 L 24.28,13.619 8.664,-8.804 c -1.778,-2.549 -6.059,-2.668 -9.515,-0.26 -0.172,0.118 -0.338,0.242 -0.498,0.369 l -0.077,0.061 c -0.037,0.03 -0.073,0.061 -0.114,0.091 l -0.029,0.027 c -0.032,0.025 -0.062,0.05 -0.09,0.076 l -0.051,0.044 -0.005,0.003 c -0.231,0.202 -0.449,0.408 -0.652,0.621 l -0.008,0.006 -0.044,0.048 -0.072,0.075 -0.03,0.032 c -0.111,0.124 -0.219,0.244 -0.321,0.37 l -0.04,0.048 c -1.888,2.312 -2.393,5.176 -1.025,7.144 l 19.259,27.648 m 0,0 0.002,-0.001 c -0.14,-0.247 0.066,-0.713 0.54,-1.314 0.215,-0.272 0.486,-0.573 0.804,-0.896 l 0.021,-0.024 0.009,-0.005"
           style="fill:#bc4916;fill-opacity:1;fill-rule:evenodd;stroke:none"
           id="path2846" />
      </g>
      <g
         id="g2848"
         transform="translate(244.68992,334.973)">
        <path
           d="m 0,0 -20.545,-29.496 c -0.891,-0.226 -1.885,-0.255 -2.909,-0.086 L -2.177,0.966 C -1.341,0.526 -0.597,0.194 0,0"
           style="fill:#d59c53;fill-opacity:1;fill-rule:evenodd;stroke:none"
           id="path2850" />
      </g>
      <g
         id="g2852"
         transform="translate(240.60452,337.0384)">
        <path
           d="m 0,0 -21.578,-30.979 c -0.273,0.125 -0.545,0.257 -0.814,0.409 L -0.758,0.485 C -0.502,0.32 -0.249,0.157 0,0"
           style="fill:#d59c53;fill-opacity:1;fill-rule:evenodd;stroke:none"
           id="path2854" />
      </g>
      <g
         id="g2856"
         transform="translate(245.41702,334.7972)">
        <path
           d="m 0,0 c -2.472,-5.647 -8.658,-7.563 -11.669,-5.531 -2.977,2.012 -3.477,8.114 1.062,12.277 C -9.622,5.734 -8.153,4.509 -6.425,3.307 -3.738,1.435 -1.221,0.166 0,0"
           style="fill:#000000;fill-opacity:1;fill-rule:evenodd;stroke:none"
           id="path2858" />
      </g>
      <g
         id="g2860"
         transform="translate(244.52982,334.472)">
        <path
           d="m 0,0 c -1.883,-5.004 -7.48,-6.517 -10.3,-4.61 -2.822,1.905 -3.472,7.465 0.815,10.881 0.42,-0.585 1.005,-1.228 1.717,-1.876 -0.044,-0.054 -0.085,-0.109 -0.126,-0.167 -1.217,-1.665 -0.944,-3.864 0.607,-4.913 1.552,-1.048 3.795,-0.548 5.014,1.117 0.063,0.087 0.122,0.176 0.177,0.267 C -1.328,0.368 -0.616,0.132 0,0"
           style="fill:#e8eaea;fill-opacity:1;fill-rule:evenodd;stroke:none"
           id="path2862" />
      </g>
      <g
         id="g2864"
         transform="translate(-11.11278,-3.256496)">
        <g
           id="g2866" />
        <g
           id="g2878">
          <g
             clip-path="url(#clipPath2870)"
             opacity="0.5"
             id="g2876">
            <g
               transform="translate(251.9585,338.3271)"
               id="g2874">
              <path
                 d="m 0,0 c 0.106,-0.087 0.051,-0.337 -0.123,-0.561 -0.172,-0.222 -0.4,-0.331 -0.505,-0.247 -0.107,0.087 -0.051,0.337 0.124,0.561 C -0.33,-0.025 -0.106,0.087 0,0"
                 style="fill:#ececed;fill-opacity:1;fill-rule:evenodd;stroke:none"
                 id="path2872" />
            </g>
          </g>
        </g>
      </g>
      <g
         id="g2880"
         transform="translate(242.35502,334.3011)">
        <path
           d="m 0,0 c -1.426,-1.773 -3.864,-2.303 -5.551,-1.172 -1.688,1.134 -1.996,3.524 -0.731,5.418 -0.355,0.359 -0.661,0.71 -0.908,1.035 -3.575,-2.713 -2.79,-7.453 -0.269,-9.186 2.519,-1.732 7.209,-0.36 8.735,3.472 C 0.892,-0.336 0.463,-0.188 0,0 m 2.175,0.171 c -1.883,-5.004 -7.482,-6.517 -10.3,-4.61 -2.822,1.905 -3.473,7.465 0.814,10.881 C -6.938,5.926 -6.44,5.365 -5.839,4.795 -5.758,4.719 -5.676,4.643 -5.592,4.565 -5.637,4.512 -5.678,4.457 -5.719,4.398 -6.937,2.734 -6.663,0.535 -5.112,-0.514 -3.561,-1.562 -1.317,-1.062 -0.099,0.603 -0.035,0.689 0.023,0.779 0.08,0.87 0.213,0.813 0.343,0.758 0.474,0.705 1.091,0.46 1.665,0.279 2.175,0.171"
           style="fill:#98969d;fill-opacity:1;fill-rule:evenodd;stroke:none"
           id="path2882" />
      </g>
      <g
         id="g2884"
         transform="translate(239.13482,338.264)">
        <path
           d="M 0,0 C 3.46,-2.412 6.667,-3.831 7.132,-3.158 7.6,-2.487 5.158,0.024 1.697,2.436 -1.765,4.846 -4.969,6.267 -5.437,5.597 -5.903,4.925 -3.463,2.41 0,0"
           style="fill:#c15c33;fill-opacity:1;fill-rule:evenodd;stroke:none"
           id="path2886" />
      </g>
      <g
         id="g2888"
         transform="translate(241.35892,339.766)">
        <path
           d="M 0,0 C 2.824,-1.967 4.849,-3.94 4.524,-4.404 4.2,-4.873 1.647,-3.656 -1.176,-1.687 -3.999,0.277 -6.027,2.25 -5.703,2.718 -5.377,3.185 -2.822,1.968 0,0"
           style="fill:#d28f4f;fill-opacity:1;fill-rule:evenodd;stroke:none"
           id="path2890" />
      </g>
      <g
         id="g2892"
         transform="translate(244.91362,336.7406)">
        <path
           d="M 0,0 C 0.706,-0.487 1.809,-0.135 2.457,0.796 3.102,1.724 3.054,2.882 2.349,3.371 1.642,3.864 0.537,3.51 -0.109,2.582 -0.757,1.651 -0.707,0.495 0,0"
           style="fill:#c7702a;fill-opacity:1;fill-rule:evenodd;stroke:none"
           id="path2894" />
      </g>
      <g
         id="g2896"
         transform="translate(243.90582,341.471)">
        <path
           d="M 0,0 C 0.445,-0.311 1.155,-0.06 1.585,0.558 2.013,1.172 2.002,1.928 1.558,2.233 1.112,2.546 0.401,2.293 -0.026,1.679 -0.456,1.064 -0.444,0.31 0,0"
           style="fill:#c7702a;fill-opacity:1;fill-rule:evenodd;stroke:none"
           id="path2898" />
      </g>
      <g
         id="g2900"
         transform="translate(248.80422,342.2503)">
        <path
           d="M 0,0 C 0.343,-0.239 0.916,-0.014 1.273,0.5 1.633,1.018 1.645,1.629 1.302,1.869 0.959,2.106 0.387,1.883 0.027,1.369 -0.331,0.854 -0.343,0.241 0,0"
           style="fill:#c7702a;fill-opacity:1;fill-rule:evenodd;stroke:none"
           id="path2902" />
      </g>
      <g
         id="g2904"
         transform="translate(247.34232,346.4798)">
        <path
           d="M 0,0 C 0.342,-0.237 0.887,-0.055 1.211,0.409 1.533,0.873 1.517,1.45 1.173,1.687 0.83,1.926 0.285,1.741 -0.038,1.278 -0.361,0.813 -0.343,0.241 0,0"
           style="fill:#c7702a;fill-opacity:1;fill-rule:evenodd;stroke:none"
           id="path2906" />
      </g>
    </g>
  </g>
</svg>
