<?xml version="1.0" encoding="UTF-8" standalone="no"?>
<!DOCTYPE svg PUBLIC "-//W3C//DTD SVG 1.1//EN" "http://www.w3.org/Graphics/SVG/1.1/DTD/svg11.dtd">
<svg width="100%" height="100%" viewBox="0 0 83 97" version="1.1" xmlns="http://www.w3.org/2000/svg" xmlns:xlink="http://www.w3.org/1999/xlink" xml:space="preserve" xmlns:serif="http://www.serif.com/" style="fill-rule:evenodd;clip-rule:evenodd;stroke-miterlimit:10;">
    <g id="Mesa-de-trabajo1" serif:id="Mesa de trabajo1" transform="matrix(0.212446,0,0,1,0,-0.499988)">
        <rect x="0" y="0.5" width="387.609" height="96.182" style="fill:none;"/>
        <clipPath id="_clip1">
            <rect x="0" y="0.5" width="387.609" height="96.182"/>
        </clipPath>
        <g clip-path="url(#_clip1)">
            <g id="Logo" transform="matrix(1.66055,-2.36706e-21,1.1142e-20,-0.352797,-1036.54,138.181)">
                <g id="path162" transform="matrix(1,0,0,1,836.209,688.099)">
                    <path d="M-47.629,-487.341C-50.109,-499.048 -54.265,-508.263 -60.093,-514.984C-63.449,-518.794 -67.967,-521.484 -73.654,-523.052C-79.343,-524.619 -89.258,-525.405 -103.398,-525.405L-131.174,-525.405L-131.174,-342.57L-104.271,-342.57C-92.025,-342.57 -83.025,-343.16 -77.262,-344.336C-71.505,-345.512 -66.802,-347.556 -63.157,-350.467C-56.158,-356.295 -51.203,-364.918 -48.284,-376.348C-45.369,-387.774 -43.91,-406.035 -43.91,-431.13C-43.91,-456.9 -45.151,-475.637 -47.629,-487.341M12.406,-355.425C7.519,-341.926 -0.826,-330.752 -12.635,-321.903C-20.51,-315.851 -30.536,-311.482 -42.708,-308.795C-54.885,-306.102 -71.25,-304.761 -91.807,-304.761L-210.303,-304.761L-210.303,-342.55L-188.967,-342.55L-188.967,-522.207L-210.303,-522.207L-210.303,-563.55L-106.241,-563.55C-72.267,-563.55 -48.394,-561.447 -34.615,-557.246C-20.836,-553.048 -10.087,-545.627 -2.357,-534.983C5.663,-524.342 11.346,-511.43 14.705,-496.247C18.056,-481.068 19.734,-455.105 19.734,-418.357C19.734,-389.906 17.29,-368.929 12.406,-355.425" style="fill:white;fill-rule:nonzero;stroke:rgb(30,19,15);stroke-width:2.83px;"/>
                </g>
                <g id="g182" transform="matrix(1,0,0,1,640.713,361.071)">
                    <path id="path184" d="M0,0L6.083,0L6.083,9.95C6.083,14.933 9.933,19.006 14.641,19.006L54.539,19.006C59.244,19.006 63.094,14.933 63.094,9.95L63.094,0L69.157,0C78.134,0 76.989,-16.741 69.585,-16.948C69.585,-77.465 69.633,-129.614 69.633,-190.137C69.633,-204.99 56.339,-217.145 40.088,-217.145L29.551,-217.145C13.3,-217.145 0,-204.99 0,-190.137L0,-16.906C-7.909,-17.546 -8.892,0 0,0" style="fill:rgb(35,32,32);"/>
                </g>
                <g id="g186" transform="matrix(1,0,0,1,705.836,344.124)">
                    <path id="path188" d="M0,0L0,-12.288C0.028,-12.781 0.043,-13.283 0.043,-13.779L0.043,-169.52C0.043,-183.702 -11.557,-195.301 -25.741,-195.301L-34.931,-195.301C-49.11,-195.301 -60.712,-183.702 -60.712,-169.52L-60.712,0L0,0ZM-60.712,12.002L-0.371,12.002C1.885,12.002 3.73,10.159 3.73,7.903C3.73,6.021 2.443,4.425 0.703,3.949L-61.79,3.949C-63.527,4.425 -64.814,6.021 -64.814,7.903C-64.814,10.159 -62.969,12.002 -60.712,12.002" style="fill:rgb(225,225,226);"/>
                </g>
                <g id="g190" transform="matrix(1,0,0,1,705.836,344.124)">
                    <path id="path192" d="M0,0L0,-12.288C0.028,-12.781 0.043,-13.283 0.043,-13.779L0.043,-169.52C0.043,-183.702 -11.557,-195.301 -25.741,-195.301L-34.931,-195.301C-49.11,-195.301 -60.712,-183.702 -60.712,-169.52L-60.712,0L-55.664,0L-55.664,-164.22C-55.664,-177.009 -44.374,-187.475 -30.572,-187.475C-16.77,-187.475 -5.482,-177.009 -5.482,-164.22L-5.482,0L0,0ZM-60.712,12.002L-0.371,12.002C1.885,12.002 3.73,10.159 3.73,7.903C3.73,6.021 2.443,4.425 0.703,3.949L-61.79,3.949C-63.527,4.425 -64.814,6.021 -64.814,7.903C-64.814,10.159 -62.969,12.002 -60.712,12.002" style="fill:rgb(186,189,191);"/>
                </g>
                <g id="g194" transform="matrix(1,0,0,1,700.355,344.124)">
                    <path id="path196" d="M0,0L0,-7.761C0,-11.897 -3.382,-15.282 -7.517,-15.282L-42.585,-15.282C-46.721,-15.282 -50.108,-11.897 -50.108,-7.761L-50.108,0L0,0ZM-42.585,29.837L-7.517,29.837C-3.382,29.837 0,26.453 0,22.317L0,16.948L-50.108,16.948L-50.108,22.317C-50.108,26.453 -46.721,29.837 -42.585,29.837" style="fill:rgb(161,125,56);"/>
                </g>
                <g id="g198" transform="matrix(1,0,0,1,700.355,344.124)">
                    <path id="path200" d="M0,0L0,-7.761C0,-11.897 -3.382,-15.282 -7.517,-15.282L-42.585,-15.282C-46.721,-15.282 -50.108,-11.897 -50.108,-7.761L-50.108,0L-46.687,0L-46.687,-5.709C-46.687,-9.278 -43.764,-12.203 -40.195,-12.203L-9.913,-12.203C-6.338,-12.203 -3.419,-9.278 -3.419,-5.709L-3.419,0L0,0ZM-42.585,29.837L-7.517,29.837C-3.382,29.837 0,26.453 0,22.317L0,16.948L-3.419,16.948L-3.419,20.265C-3.419,23.839 -6.338,26.756 -9.913,26.756L-40.195,26.756C-43.764,26.756 -46.687,23.839 -46.687,20.265L-46.687,16.948L-50.108,16.948L-50.108,22.317C-50.108,26.453 -46.721,29.837 -42.585,29.837" style="fill:rgb(138,116,34);"/>
                </g>
                <g id="g202" transform="matrix(1,0,0,1,-47.6287,-487.341)">
                    <g id="g224">
                        <g id="g222" opacity="0.5">
                            <g id="g220">
                                <g id="g218">
                                    <clipPath id="_clip2">
                                        <rect x="697.799" y="643.992" width="50.185" height="130.36"/>
                                    </clipPath>
                                    <g clip-path="url(#_clip2)">
                                        <g id="g216" transform="matrix(1,0,0,1,698.211,774.351)">
                                            <path id="path214" d="M0,0C2.137,-2.305 12.376,-4.056 24.684,-4.056C36.986,-4.056 47.222,-2.305 49.363,0L49.774,-1.457L49.774,-111.515C49.774,-121.878 38.483,-130.36 24.684,-130.36C10.879,-130.36 -0.414,-121.878 -0.414,-111.515L-0.414,-0.643L0,0Z" style="fill:white;"/>
                                        </g>
                                    </g>
                                </g>
                            </g>
                        </g>
                    </g>
                </g>
                <g id="g226" transform="matrix(1,0,0,1,650.172,285.562)">
                    <path id="path228" d="M0,0L0.006,0C0.261,-2.645 11.398,-4.771 25.095,-4.771C38.786,-4.771 49.921,-2.645 50.179,0L50.185,0L50.185,-110.39C50.185,-120.58 38.894,-128.914 25.095,-128.914C11.29,-128.914 0,-120.58 0,-110.39L0,0Z" style="fill:rgb(202,108,56);"/>
                </g>
                <g id="g230" transform="matrix(1,0,0,1,660.581,182.613)">
                    <path id="path232" d="M0,0C-1.383,0 -2.506,-1.494 -2.506,-3.339C-2.506,-5.185 -1.383,-6.678 0,-6.678C1.383,-6.678 2.506,-5.185 2.506,-3.339C2.506,-1.494 1.383,0 0,0M6.279,9.89C4.992,9.89 3.946,8.535 3.946,6.863C3.946,5.19 4.992,3.835 6.279,3.835C7.566,3.835 8.609,5.19 8.609,6.863C8.609,8.535 7.566,9.89 6.279,9.89M-3.356,76.552C-3.475,74.463 -4.839,72.814 -6.497,72.814L-6.497,-4.394C-6.497,-9.272 -4,-13.694 -0.003,-16.855C1.046,-13.484 3.934,-11.064 7.328,-11.064C11.611,-11.064 15.083,-14.913 15.083,-19.658C15.083,-20.373 15.004,-21.064 14.856,-21.725C26.425,-21.648 35.864,-13.878 35.864,-4.394L35.864,74.171C30.954,66.634 23.859,61.88 17.082,61.784C9.357,61.673 1.253,67.405 -3.356,76.552M-6.111,84.084C-6.245,84.149 -6.372,84.212 -6.497,84.288L-6.497,80.895C-5.961,80.895 -5.457,80.725 -5.017,80.419C-5.437,81.604 -5.811,82.823 -6.111,84.084M-1.987,99.408L-1.95,99.403L-1.695,99.363L-1.661,99.357L-1.397,99.309L-1.366,99.303L-1.1,99.266L-0.799,99.215L-0.768,99.21L-0.493,99.17L-0.465,99.164L-0.414,99.159C0.179,99.071 0.791,98.991 1.423,98.915L1.44,98.912C5.278,98.444 9.819,98.181 14.683,98.181C19.545,98.181 24.08,98.444 27.927,98.912C31.088,99.295 33.775,99.808 35.787,100.412L35.819,100.423L36.091,100.508L36.252,100.559L36.323,100.582L36.516,100.647L36.689,100.706L36.836,100.76L36.933,100.794L36.964,100.809L37.14,100.871L37.264,100.925L37.324,100.947C37.477,101.01 37.624,101.072 37.766,101.137L37.817,101.16L37.939,101.214L38.083,101.285L38.086,101.285L38.18,101.336L38.31,101.407L38.339,101.421C38.392,101.452 38.446,101.48 38.497,101.511L38.565,101.551C38.616,101.58 38.662,101.608 38.704,101.633L38.71,101.642L38.716,101.645C38.772,101.682 38.823,101.718 38.874,101.752L38.894,101.764C38.985,101.829 39.067,101.894 39.149,101.962L39.192,101.999C39.231,102.033 39.263,102.067 39.297,102.098L39.322,102.118C39.348,102.149 39.373,102.178 39.402,102.206L39.421,102.231C39.484,102.305 39.538,102.373 39.586,102.45L39.597,102.47C39.62,102.504 39.64,102.543 39.657,102.577L39.662,102.591C39.682,102.626 39.699,102.665 39.711,102.702L39.713,102.702C39.728,102.742 39.739,102.779 39.745,102.818L39.75,102.841C39.756,102.875 39.764,102.915 39.767,102.949L39.773,102.949L39.773,-7.441C39.773,-17.631 28.485,-25.963 14.683,-25.963C13.997,-25.963 13.32,-25.946 12.654,-25.903L12.336,-25.886C12.175,-25.872 12.016,-25.858 11.857,-25.846L11.724,-25.835C11.591,-25.824 11.466,-25.812 11.339,-25.798L11.126,-25.778L11.1,-25.775C10.106,-25.671 9.136,-25.52 8.192,-25.333L8.152,-25.322L7.948,-25.282L7.614,-25.211L7.472,-25.18C6.945,-25.061 6.426,-24.934 5.916,-24.792L5.72,-24.735C-3.691,-22.059 -10.412,-15.299 -10.412,-7.441L-10.412,102.949M-10.412,102.949L-10.403,102.949C-10.315,102.025 -8.892,101.163 -6.491,100.434C-5.403,100.1 -4.113,99.797 -2.656,99.53L-2.551,99.507L-2.517,99.505" style="fill:rgb(193,71,46);"/>
                </g>
                <g id="g234" transform="matrix(1,0,0,1,696.445,283.049)">
                    <path id="path236" d="M0,0L0,-117.78C-1.967,-120.059 -4.584,-121.997 -7.656,-123.46L-7.656,-1.485C-4.584,-1.106 -1.964,-0.595 0,0" style="fill:rgb(214,151,83);"/>
                </g>
                <g id="g238" transform="matrix(1,0,0,1,681.598,280.948)">
                    <path id="path240" d="M0,0L0,-123.701C-0.964,-123.883 -1.947,-124.03 -2.951,-124.129L-2.951,-0.111C-1.947,-0.082 -0.964,-0.045 0,0" style="fill:rgb(214,151,83);"/>
                </g>
                <g id="g242" transform="matrix(1,0,0,1,698.733,283.932)">
                    <path id="path244" d="M0,0C3.937,-19.811 -9.113,-36.547 -21.013,-36.717C-32.783,-36.887 -45.561,-21.419 -41.151,-1.726C-36.612,-2.597 -30.368,-3.138 -23.468,-3.138C-12.742,-3.138 -3.591,-1.831 0,0" style="fill:rgb(35,32,32);"/>
                </g>
                <g id="g246" transform="matrix(1,0,0,1,696.954,281.402)">
                    <path id="path248" d="M0,0C4.309,-16.985 -7.906,-31.535 -19.054,-31.691C-30.212,-31.853 -42.378,-18.116 -37.239,-0.901C-35.014,-1.695 -32.244,-2.319 -29.112,-2.735C-29.123,-2.962 -29.14,-3.189 -29.143,-3.419C-29.293,-10.171 -24.443,-15.579 -18.306,-15.489C-12.172,-15.403 -7.075,-9.856 -6.922,-3.098C-6.914,-2.747 -6.917,-2.392 -6.939,-2.049C-4.258,-1.502 -1.902,-0.808 0,0" style="fill:rgb(225,225,226);"/>
                </g>
                <g id="g250" transform="matrix(1,0,0,1,-47.6287,-487.341)">
                    <g id="g272">
                        <g id="g270">
                            <clipPath id="_clip3">
                                <rect x="732.662" y="760.099" width="1.624" height="3.351"/>
                            </clipPath>
                            <g clip-path="url(#_clip3)">
                                <g opacity="0.5">
                                    <g id="g268">
                                        <g id="g266">
                                            <clipPath id="_clip4">
                                                <rect x="732.662" y="760.099" width="1.621" height="3.351"/>
                                            </clipPath>
                                            <g clip-path="url(#_clip4)">
                                                <g id="g264" transform="matrix(1,0,0,1,733.56,763.45)">
                                                    <path id="path262" d="M0,0C0.448,-0.037 0.768,-0.811 0.72,-1.738C0.672,-2.662 0.269,-3.382 -0.176,-3.351C-0.621,-3.317 -0.944,-2.537 -0.893,-1.61C-0.842,-0.686 -0.445,0.034 0,0" style="fill:rgb(230,231,231);"/>
                                                </g>
                                            </g>
                                        </g>
                                    </g>
                                </g>
                            </g>
                        </g>
                    </g>
                </g>
                <g id="g274" transform="matrix(1,0,0,1,691.429,276.867)">
                    <path id="path276" d="M0,0C-0.513,-7.435 -6.083,-13.431 -12.728,-13.547C-19.395,-13.663 -24.695,-7.809 -24.834,-0.351C-26.467,-0.051 -27.941,0.315 -29.22,0.737C-33.761,-13.255 -22.765,-24.531 -12.739,-24.471C-2.721,-24.412 7.313,-11.937 4.246,1.23C3.025,0.768 1.596,0.354 0,0M5.525,4.535C9.833,-12.453 -2.378,-27 -13.527,-27.156C-24.684,-27.32 -36.85,-13.581 -31.714,3.628C-29.75,2.934 -27.363,2.364 -24.678,1.953C-24.321,1.902 -23.953,1.848 -23.587,1.803C-23.601,1.573 -23.615,1.346 -23.618,1.117C-23.769,-5.635 -18.916,-11.044 -12.781,-10.953C-6.644,-10.868 -1.548,-5.321 -1.397,1.437C-1.389,1.789 -1.397,2.143 -1.414,2.492C-0.95,2.585 -0.49,2.682 -0.045,2.784C2.075,3.277 3.954,3.866 5.525,4.535" style="fill:rgb(145,147,151);"/>
                </g>
                <g id="g278" transform="matrix(1,0,0,1,675.351,281.49)">
                    <path id="path280" d="M0,0C13.819,0 25.092,2.186 25.092,4.861C25.092,7.54 13.819,9.729 0,9.729C-13.822,9.729 -25.092,7.54 -25.092,4.861C-25.092,2.186 -13.822,0 0,0" style="fill:rgb(197,88,60);"/>
                </g>
                <g id="g282" transform="matrix(1,0,0,1,678.517,289.695)">
                    <path id="path284" d="M0,0C11.279,0 20.418,-1.511 20.418,-3.373C20.418,-5.238 11.279,-6.746 0,-6.746C-11.276,-6.746 -20.418,-5.238 -20.418,-3.373C-20.418,-1.511 -11.276,0 0,0" style="fill:rgb(212,139,83);"/>
                </g>
                <g id="g286" transform="matrix(1,0,0,1,693.735,288.22)">
                    <path id="path288" d="M0,0C2.82,0 5.122,3.025 5.122,6.735C5.122,10.44 2.82,13.462 0,13.462C-2.82,13.462 -5.125,10.44 -5.125,6.735C-5.125,3.025 -2.82,0 0,0" style="fill:rgb(202,108,56);"/>
                </g>
                <g id="g290" transform="matrix(1,0,0,1,682.173,299.046)">
                    <path id="path292" d="M0,0C1.772,0 3.22,2.01 3.22,4.467C3.22,6.922 1.772,8.929 0,8.929C-1.772,8.929 -3.22,6.922 -3.22,4.467C-3.22,2.01 -1.772,0 0,0" style="fill:rgb(202,108,56);"/>
                </g>
                <g id="g294" transform="matrix(1,0,0,1,693.88,310.318)">
                    <path id="path296" d="M0,0C1.369,0 2.489,1.675 2.489,3.728C2.489,5.786 1.369,7.461 0,7.461C-1.369,7.461 -2.486,5.786 -2.486,3.728C-2.486,1.675 -1.369,0 0,0" style="fill:rgb(202,108,56);"/>
                </g>
                <g id="g298" transform="matrix(1,0,0,1,682.027,318.952)">
                    <path id="path300" d="M0,0C1.369,0 2.489,1.508 2.489,3.365C2.489,5.219 1.369,6.729 0,6.729C-1.369,6.729 -2.486,5.219 -2.486,3.365C-2.486,1.508 -1.369,0 0,0" style="fill:rgb(202,108,56);"/>
                </g>
            </g>
        </g>
    </g>
</svg>
