<?xml version="1.0" encoding="UTF-8" standalone="no"?>
<svg
   xmlns:dc="http://purl.org/dc/elements/1.1/"
   xmlns:cc="http://creativecommons.org/ns#"
   xmlns:rdf="http://www.w3.org/1999/02/22-rdf-syntax-ns#"
   xmlns:svg="http://www.w3.org/2000/svg"
   xmlns="http://www.w3.org/2000/svg"
   xmlns:sodipodi="http://sodipodi.sourceforge.net/DTD/sodipodi-0.dtd"
   xmlns:inkscape="http://www.inkscape.org/namespaces/inkscape"
   width="124.60147mm"
   height="143.02808mm"
   viewBox="0 0 124.60147 143.02807"
   version="1.1"
   id="svg8"
   inkscape:version="1.0.2 (e86c870879, 2021-01-15)"
   sodipodi:docname="doxis.svg">
  <defs
     id="defs2" />
  <sodipodi:namedview
     id="base"
     pagecolor="#ffffff"
     bordercolor="#666666"
     borderopacity="1.0"
     inkscape:pageopacity="0.0"
     inkscape:pageshadow="2"
     inkscape:zoom="0.98994949"
     inkscape:cx="75.41822"
     inkscape:cy="272.31852"
     inkscape:document-units="mm"
     inkscape:current-layer="layer1"
     inkscape:document-rotation="0"
     showgrid="false"
     inkscape:object-paths="true"
     inkscape:snap-intersection-paths="true"
     inkscape:snap-smooth-nodes="true"
     inkscape:snap-midpoints="true"
     inkscape:snap-object-midpoints="true"
     inkscape:snap-center="true"
     inkscape:snap-text-baseline="true"
     inkscape:snap-page="true"
     inkscape:snap-bbox="false"
     inkscape:bbox-paths="true"
     inkscape:bbox-nodes="true"
     inkscape:snap-bbox-edge-midpoints="true"
     inkscape:snap-bbox-midpoints="true"
     inkscape:snap-others="false"
     inkscape:snap-nodes="false"
     inkscape:snap-global="true"
     inkscape:window-width="1920"
     inkscape:window-height="1016"
     inkscape:window-x="0"
     inkscape:window-y="27"
     inkscape:window-maximized="1" />
  <metadata
     id="metadata5">
    <rdf:RDF>
      <cc:Work
         rdf:about="">
        <dc:format>image/svg+xml</dc:format>
        <dc:type
           rdf:resource="http://purl.org/dc/dcmitype/StillImage" />
        <dc:title></dc:title>
      </cc:Work>
    </rdf:RDF>
  </metadata>
  <g
     inkscape:label="Capa 1"
     inkscape:groupmode="layer"
     id="layer1"
     transform="translate(-22.609371,-76.396313)">
    <g
       id="g944"
       style="fill:#ffffff;stroke:#000000;stroke-width:0.5;stroke-miterlimit:4;stroke-dasharray:none">
      <path
         d="m 48.447612,155.99482 c 4.685982,0 10.278092,-2.04527 10.278092,-9.06129 0,-7.74093 -5.048433,-9.06129 -10.32987,-9.06129 H 35.968921 v 18.12258 z m -0.41423,-4.91899 h -6.03223 v -8.20694 h 6.03223 c 3.236175,0 4.375309,1.83815 4.375309,4.09053 0,2.27826 -1.423917,4.11641 -4.375309,4.11641 z"
         style="font-style:normal;font-variant:normal;font-weight:normal;font-stretch:normal;font-size:25.8894px;line-height:1.25;font-family:Hanson;-inkscape-font-specification:Hanson;fill:#ffffff;fill-opacity:1;stroke:#000000;stroke-width:0.5;stroke-miterlimit:4;stroke-dasharray:none"
         id="path851" />
      <path
         d="m 84.605272,105.24413 c -8.155161,0 -12.064461,2.87373 -12.064461,8.93185 0,6.52413 3.572738,9.60496 12.219798,9.60496 8.439944,0 12.452799,-2.20059 12.452799,-9.2684 0,-7.22314 -4.737758,-9.26841 -12.608136,-9.26841 z m 0.233005,13.77316 c -3.88341,0 -5.669779,-1.86403 -5.669779,-4.50475 0,-2.82195 1.786369,-4.50476 5.592111,-4.50476 3.391511,0 5.825115,1.50159 5.825115,4.50476 0,3.13262 -2.226489,4.50475 -5.747447,4.50475 z"
         style="font-style:normal;font-variant:normal;font-weight:normal;font-stretch:normal;font-size:25.8894px;line-height:1.25;font-family:Hanson;-inkscape-font-specification:Hanson;fill:#ffffff;fill-opacity:1;stroke:#000000;stroke-width:0.5;stroke-miterlimit:4;stroke-dasharray:none"
         id="path853" />
      <path
         d="m 121.62274,156.00776 h 6.03223 v -18.14847 h -6.03223 z"
         style="font-style:normal;font-variant:normal;font-weight:normal;font-stretch:normal;font-size:25.8894px;line-height:1.25;font-family:Hanson;-inkscape-font-specification:Hanson;fill:#ffffff;fill-opacity:1;stroke:#000000;stroke-width:0.5;stroke-miterlimit:4;stroke-dasharray:none"
         id="path857" />
      <path
         d="m 84.268709,172.42789 c -7.99983,0 -11.13244,0.54367 -11.13244,5.92867 0,4.68598 3.753961,5.04843 11.13244,5.64389 4.76365,0.38834 5.30733,0.28478 5.30733,0.85435 0,0.82846 -0.4919,0.80257 -4.86721,0.80257 -4.6342,0 -5.07432,-0.25889 -5.07432,-1.34625 -0.77669,0 -6.23935,0 -6.23935,0 0,5.30733 1.4757,6.23935 11.05477,6.23935 10.40754,0 12.16802,-0.95791 12.16802,-5.618 0,-4.68599 -2.17471,-4.81543 -12.245679,-5.64389 -4.55654,-0.36245 -4.893101,-0.38834 -4.94488,-0.88024 0,-0.67313 0.38834,-0.88024 4.99665,-0.88024 4.76365,0 5.12611,0.54368 5.12611,1.47569 1.03557,0 6.42057,0 6.42057,0 0,-5.25554 -2.2006,-6.5759 -11.702011,-6.5759 z"
         style="font-style:normal;font-variant:normal;font-weight:normal;font-stretch:normal;font-size:25.8894px;line-height:1.25;font-family:Hanson;-inkscape-font-specification:Hanson;fill:#ffffff;fill-opacity:1;stroke:#000000;stroke-width:0.5;stroke-miterlimit:4;stroke-dasharray:none"
         id="path859" />
      <path
         id="path931"
         style="color:#000000;font-style:normal;font-variant:normal;font-weight:normal;font-stretch:normal;font-size:medium;line-height:normal;font-family:sans-serif;font-variant-ligatures:normal;font-variant-position:normal;font-variant-caps:normal;font-variant-numeric:normal;font-variant-alternates:normal;font-variant-east-asian:normal;font-feature-settings:normal;font-variation-settings:normal;text-indent:0;text-align:start;text-decoration:none;text-decoration-line:none;text-decoration-style:solid;text-decoration-color:#000000;letter-spacing:normal;word-spacing:normal;text-transform:none;writing-mode:lr-tb;direction:ltr;text-orientation:mixed;dominant-baseline:auto;baseline-shift:baseline;text-anchor:start;white-space:normal;shape-padding:0;shape-margin:0;inline-size:0;clip-rule:nonzero;display:inline;overflow:visible;visibility:visible;opacity:1;isolation:auto;mix-blend-mode:normal;color-interpolation:sRGB;color-interpolation-filters:linearRGB;solid-color:#000000;solid-opacity:1;vector-effect:none;fill:#ffffff;fill-opacity:1;fill-rule:nonzero;stroke:#000000;stroke-width:1.88976;stroke-linecap:round;stroke-linejoin:round;stroke-miterlimit:4;stroke-dasharray:none;stroke-dashoffset:0;stroke-opacity:1;color-rendering:auto;image-rendering:auto;shape-rendering:auto;text-rendering:auto;enable-background:accumulate;stop-color:#000000;stop-opacity:1"
         d="M 234.45117,-0.00195313 A 9.4497638,9.4497638 0 0 0 229.80078,1.2675781 L 4.7265625,131.21094 a 9.4497638,9.4497638 0 0 0 -4.72460937,8.1875 v 259.89453 a 9.4497638,9.4497638 0 0 0 4.72460937,8.18555 L 229.80078,537.42188 a 9.4497638,9.4497638 0 0 0 9.44727,0 L 464.32227,407.47852 a 9.4497638,9.4497638 0 0 0 4.72461,-8.18555 V 139.39844 a 9.4497638,9.4497638 0 0 0 -4.72461,-8.1875 L 239.24805,1.2675781 a 9.4497638,9.4497638 0 0 0 -4.79688,-1.26953123 z M 234.52539,20.357422 442.17383,140.24805 234.81836,259.15039 27.28125,140.01367 Z M 18.900391,156.99023 215.82812,270.03906 18.900391,382.96289 Z m 431.249999,0.47071 V 382.75977 L 253.80273,270.04688 Z M 234.81055,280.9375 440.8457,399.21484 234.52539,518.33203 28.375,399.30859 Z"
         transform="matrix(0.26458333,0,0,0.26458333,22.858854,76.646889)" />
    </g>
  </g>
</svg>
