<?xml version="1.0" encoding="UTF-8" standalone="no"?>
<svg
   xmlns:dc="http://purl.org/dc/elements/1.1/"
   xmlns:cc="http://creativecommons.org/ns#"
   xmlns:rdf="http://www.w3.org/1999/02/22-rdf-syntax-ns#"
   xmlns:svg="http://www.w3.org/2000/svg"
   xmlns="http://www.w3.org/2000/svg"
   xmlns:sodipodi="http://sodipodi.sourceforge.net/DTD/sodipodi-0.dtd"
   xmlns:inkscape="http://www.inkscape.org/namespaces/inkscape"
   width="136.73976mm"
   height="34.107262mm"
   viewBox="0 0 136.73976 34.107262"
   version="1.1"
   id="svg454"
   inkscape:version="1.0.2 (e86c870879, 2021-01-15)"
   sodipodi:docname="doxis-full.svg">
  <defs
     id="defs448">
    <clipPath
       clipPathUnits="userSpaceOnUse"
       id="clipPath208">
      <path
         d="m 246.168,273.174 h 17.704 v -45.988 h -17.704 z"
         id="path206" />
    </clipPath>
    <clipPath
       clipPathUnits="userSpaceOnUse"
       id="clipPath212">
      <path
         d="m 246.168,227.186 h 17.704 v 45.988 h -17.704 z"
         id="path210" />
    </clipPath>
    <clipPath
       clipPathUnits="userSpaceOnUse"
       id="clipPath256">
      <path
         d="m 258.467,269.328 h 0.573 v -1.182 h -0.573 z"
         id="path254" />
    </clipPath>
    <clipPath
       clipPathUnits="userSpaceOnUse"
       id="clipPath260">
      <path
         d="m 258.467,268.146 h 0.572 v 1.182 h -0.572 z"
         id="path258" />
    </clipPath>
    <clipPath
       clipPathUnits="userSpaceOnUse"
       id="clipPath66">
      <path
         d="m 248.168,408.174 h 17.704 v -45.988 h -17.704 z"
         id="path64" />
    </clipPath>
    <clipPath
       clipPathUnits="userSpaceOnUse"
       id="clipPath70">
      <path
         d="m 248.168,362.186 h 17.704 v 45.988 h -17.704 z"
         id="path68" />
    </clipPath>
    <clipPath
       clipPathUnits="userSpaceOnUse"
       id="clipPath114">
      <path
         d="m 260.467,404.329 h 0.573 v -1.183 h -0.573 z"
         id="path112" />
    </clipPath>
    <clipPath
       clipPathUnits="userSpaceOnUse"
       id="clipPath118">
      <path
         d="m 260.467,403.146 h 0.572 v 1.182 h -0.572 z"
         id="path116" />
    </clipPath>
    <clipPath
       clipPathUnits="userSpaceOnUse"
       id="clipPath208-3">
      <path
         d="m 246.168,273.174 h 17.704 v -45.988 h -17.704 z"
         id="path206-6" />
    </clipPath>
    <clipPath
       clipPathUnits="userSpaceOnUse"
       id="clipPath212-7">
      <path
         d="m 246.168,227.186 h 17.704 v 45.988 h -17.704 z"
         id="path210-5" />
    </clipPath>
    <clipPath
       clipPathUnits="userSpaceOnUse"
       id="clipPath256-3">
      <path
         d="m 258.467,269.328 h 0.573 v -1.182 h -0.573 z"
         id="path254-5" />
    </clipPath>
    <clipPath
       clipPathUnits="userSpaceOnUse"
       id="clipPath260-6">
      <path
         d="m 258.467,268.146 h 0.572 v 1.182 h -0.572 z"
         id="path258-2" />
    </clipPath>
  </defs>
  <sodipodi:namedview
     id="base"
     pagecolor="#ffffff"
     bordercolor="#666666"
     borderopacity="1.0"
     inkscape:pageopacity="0.0"
     inkscape:pageshadow="2"
     inkscape:zoom="1.4142136"
     inkscape:cx="258.40586"
     inkscape:cy="64.454636"
     inkscape:document-units="mm"
     inkscape:current-layer="layer1"
     inkscape:document-rotation="0"
     showgrid="false"
     inkscape:window-width="1920"
     inkscape:window-height="1016"
     inkscape:window-x="0"
     inkscape:window-y="27"
     inkscape:window-maximized="1" />
  <metadata
     id="metadata451">
    <rdf:RDF>
      <cc:Work
         rdf:about="">
        <dc:format>image/svg+xml</dc:format>
        <dc:type
           rdf:resource="http://purl.org/dc/dcmitype/StillImage" />
        <dc:title></dc:title>
      </cc:Work>
    </rdf:RDF>
  </metadata>
  <g
     inkscape:label="Capa 1"
     inkscape:groupmode="layer"
     id="layer1"
     transform="translate(-31.941984,-125.48119)">
    <g
       id="g1188"
       transform="matrix(0.35277777,0,0,-0.35277777,-45.776987,174.13878)">
      <path
         d="m -16.802351,-171.92306 c -0.875,-4.13 -2.341,-7.381 -4.397,-9.752 -1.184,-1.344 -2.778,-2.293 -4.784,-2.846 -2.007,-0.553 -5.505,-0.83 -10.493,-0.83 h -9.799 v 64.5 h 9.491 c 4.32,0 7.495,-0.208 9.528,-0.623 2.031,-0.415 3.69,-1.136 4.976,-2.163 2.469,-2.056 4.217,-5.098 5.247,-9.13 1.028,-4.031 1.543,-10.473 1.543,-19.326 0,-9.091 -0.438,-15.701 -1.312,-19.83 m 21.1790001,46.537 c -1.724,4.762 -4.668,8.704 -8.834,11.826 -2.778,2.135 -6.3150001,3.676 -10.6090001,4.624 -4.296,0.95 -10.069,1.423 -17.321,1.423 h -23.04 -12.529 -6.234 v -13.331 h 7.527 v -63.379 h -7.527 v -14.585 h 6.234 12.529 17.948 c 11.985,0 20.407,0.742 25.268,2.224 4.8610001,1.481 8.6530001,4.099 11.3800001,7.854 2.829,3.754 4.834,8.309 6.019,13.665 1.182,5.355 1.774,14.514 1.774,27.478 0,10.037 -0.862,17.437 -2.585,22.201"
         style="fill:#ffffff;fill-opacity:1;fill-rule:nonzero;stroke:#1e130f;stroke-width:1;stroke-linecap:butt;stroke-linejoin:miter;stroke-miterlimit:10;stroke-dasharray:none;stroke-opacity:1"
         id="path162"
         transform="translate(294.9961,242.7461)" />
      <g
         id="g164"
         transform="translate(368.66545,61.100342)">
        <path
           d="m 0,0 c -2.232,-3.814 -6.375,-5.721 -12.429,-5.721 -6.158,0 -10.379,1.948 -12.662,5.84 -2.284,3.892 -3.425,13.348 -3.425,28.366 0,15.177 1.128,24.701 3.386,28.575 2.257,3.873 6.44,5.809 12.547,5.809 6.105,0 10.288,-1.936 12.545,-5.809 C 2.219,53.186 3.349,43.662 3.349,28.485 3.349,13.31 2.232,3.814 0,0 m 18.71,64.767 c -3.495,4.149 -7.631,7.114 -12.41,8.892 -4.779,1.779 -11.074,2.667 -18.883,2.667 -7.812,0 -14.105,-0.888 -18.885,-2.667 -4.778,-1.778 -8.889,-4.743 -12.332,-8.892 -2.518,-2.926 -4.369,-7.283 -5.551,-13.073 -1.18,-5.79 -1.772,-13.526 -1.772,-23.209 0,-9.683 0.592,-17.419 1.772,-23.209 1.182,-5.79 3.033,-10.147 5.551,-13.071 3.443,-4.15 7.554,-7.114 12.332,-8.892 4.78,-1.779 11.073,-2.668 18.885,-2.668 7.809,0 14.104,0.889 18.883,2.668 4.779,1.778 8.915,4.742 12.41,8.892 2.467,3.003 4.291,7.4 5.472,13.19 1.181,5.79 1.774,13.487 1.774,23.09 0,9.644 -0.58,17.35 -1.735,23.12 -1.157,5.77 -2.993,10.158 -5.511,13.162"
           style="fill:#ffffff;fill-opacity:1;fill-rule:nonzero;stroke:#1e130f;stroke-width:1;stroke-linecap:butt;stroke-linejoin:miter;stroke-miterlimit:10;stroke-dasharray:none;stroke-opacity:1"
           id="path166" />
      </g>
      <g
         id="g168"
         transform="translate(484.19765,135.23314)">
        <path
           d="M 0,0 H -24.689 L -40.814,-28.752 -56.633,0 h -24.92 l 27.621,-44.699 -29.088,-46.596 h 24.074 l 17.514,30.472 17.205,-30.472 H 0.771 l -29.396,46.596 z"
           style="fill:#ffffff;fill-opacity:1;fill-rule:nonzero;stroke:none"
           id="path170" />
      </g>
      <g
         id="g172"
         transform="translate(484.19765,135.23314)">
        <path
           d="M 0,0 H -24.689 L -40.814,-28.752 -56.633,0 h -24.92 l 27.621,-44.699 -29.088,-46.596 h 24.074 l 17.514,30.472 17.205,-30.472 H 0.771 l -29.396,46.596 z"
           style="fill:none;stroke:#1e130f;stroke-width:1;stroke-linecap:butt;stroke-linejoin:miter;stroke-miterlimit:10;stroke-dasharray:none;stroke-opacity:1"
           id="path174" />
      </g>
      <path
         d="m 496.46565,43.937942 h 22.144 v 91.295998 h -22.144 z"
         style="fill:#ffffff;fill-opacity:1;fill-rule:nonzero;stroke:#1e130f;stroke-width:1;stroke-linecap:butt;stroke-linejoin:miter;stroke-miterlimit:10;stroke-dasharray:none;stroke-opacity:1"
         id="path176" />
      <g
         id="g178"
         transform="translate(602.78555,82.739042)">
        <path
           d="m 0,0 c -3.087,3.932 -8.977,8.111 -17.669,12.538 l -12.19,6.343 -0.232,0.119 c -9.104,4.663 -13.656,8.912 -13.656,12.746 0,2.846 1.015,5.068 3.048,6.668 2.031,1.602 4.821,2.401 8.371,2.401 4.834,0 8.306,-1.066 10.416,-3.201 2.107,-2.134 3.163,-5.671 3.163,-10.611 V 24.572 H 2.237 c 0.05,0.356 0.089,0.771 0.116,1.245 0.025,0.474 0.039,1.146 0.039,2.016 0,8.655 -2.933,15.295 -8.796,19.919 -5.864,4.624 -14.301,6.936 -25.307,6.936 -10.391,0 -18.544,-2.174 -24.459,-6.522 -5.915,-4.348 -8.872,-10.353 -8.872,-18.021 0,-5.138 1.323,-9.407 3.974,-12.805 2.648,-3.4 8.859,-7.707 18.632,-12.924 l 11.342,-6.165 c 5.657,-3.083 9.336,-5.603 11.033,-7.559 1.698,-1.956 2.547,-4.297 2.547,-7.024 0,-3.558 -1.223,-6.245 -3.666,-8.063 -2.443,-1.818 -6.006,-2.727 -10.685,-2.727 -4.476,0 -7.627,1.018 -9.451,3.054 -1.828,2.035 -2.741,5.858 -2.741,11.47 v 5.869 h -22.142 v -0.355 c -0.207,-2.372 -0.309,-4.071 -0.309,-5.099 0,-9.722 2.918,-16.954 8.757,-21.698 5.837,-4.742 14.724,-7.113 26.657,-7.113 11.47,0 20.291,2.253 26.464,6.758 6.173,4.506 9.259,10.908 9.259,19.208 C 4.629,-8.942 3.086,-3.934 0,0"
           style="fill:#ffffff;fill-opacity:1;fill-rule:nonzero;stroke:#1e130f;stroke-width:1;stroke-linecap:butt;stroke-linejoin:miter;stroke-miterlimit:10;stroke-dasharray:none;stroke-opacity:1"
           id="path180" />
      </g>
      <g
         id="g182"
         transform="translate(226.02915,127.37774)">
        <path
           d="m 0,0 h 2.146 v 3.51 c 0,1.758 1.358,3.195 3.019,3.195 H 19.24 c 1.66,0 3.018,-1.437 3.018,-3.195 V 0 h 2.139 c 3.167,0 2.763,-5.906 0.151,-5.979 0,-21.349 0.017,-39.746 0.017,-61.097 0,-5.24 -4.69,-9.528 -10.423,-9.528 H 10.425 C 4.692,-76.604 0,-72.316 0,-67.076 v 50.11 11.002 C -2.79,-6.19 -3.137,0 0,0"
           style="fill:#232020;fill-opacity:1;fill-rule:evenodd;stroke:none"
           id="path184" />
      </g>
      <g
         id="g186"
         transform="translate(249.00335,121.39924)">
        <path
           d="m 0,0 v -4.335 c 0.01,-0.174 0.015,-0.351 0.015,-0.526 v -54.942 c 0,-5.003 -4.092,-9.095 -9.096,-9.095 h -3.242 c -5.002,0 -9.095,4.092 -9.095,9.095 v 47.84 7.102 V 0 Z m -21.418,4.234 h 21.287 c 0.796,0 1.447,-0.65 1.447,-1.446 0,-0.664 -0.454,-1.227 -1.068,-1.395 h -22.046 c -0.613,0.168 -1.067,0.731 -1.067,1.395 0,0.796 0.651,1.446 1.447,1.446"
           style="fill:#e1e1e2;fill-opacity:1;fill-rule:evenodd;stroke:none"
           id="path188" />
      </g>
      <g
         id="g190"
         transform="translate(249.00335,121.39924)">
        <path
           d="m 0,0 v -4.335 c 0.01,-0.174 0.015,-0.351 0.015,-0.526 v -54.942 c 0,-5.003 -4.092,-9.095 -9.096,-9.095 h -3.242 c -5.002,0 -9.095,4.092 -9.095,9.095 v 47.84 7.102 V 0 h 1.781 v -57.933 c 0,-4.512 3.983,-8.204 8.852,-8.204 4.869,0 8.851,3.692 8.851,8.204 V 0 Z m -21.418,4.234 h 21.287 c 0.796,0 1.447,-0.65 1.447,-1.446 0,-0.664 -0.454,-1.227 -1.068,-1.395 h -22.046 c -0.613,0.168 -1.067,0.731 -1.067,1.395 0,0.796 0.651,1.446 1.447,1.446"
           style="fill:#babdbf;fill-opacity:1;fill-rule:evenodd;stroke:none"
           id="path192" />
      </g>
      <g
         id="g194"
         transform="translate(247.06975,121.39924)">
        <path
           d="m 0,0 v -2.738 c 0,-1.459 -1.193,-2.653 -2.652,-2.653 h -12.371 c -1.459,0 -2.654,1.194 -2.654,2.653 V 0 Z M -15.023,10.526 H -2.652 C -1.193,10.526 0,9.332 0,7.873 V 5.979 h -17.677 v 1.894 c 0,1.459 1.195,2.653 2.654,2.653"
           style="fill:#a17d38;fill-opacity:1;fill-rule:evenodd;stroke:none"
           id="path196" />
      </g>
      <g
         id="g198"
         transform="translate(247.06975,121.39924)">
        <path
           d="m 0,0 v -2.738 c 0,-1.459 -1.193,-2.653 -2.652,-2.653 h -12.371 c -1.459,0 -2.654,1.194 -2.654,2.653 V 0 h 1.207 v -2.014 c 0,-1.259 1.031,-2.291 2.29,-2.291 h 10.683 c 1.261,0 2.291,1.032 2.291,2.291 V 0 Z M -15.023,10.526 H -2.652 C -1.193,10.526 0,9.332 0,7.873 V 5.979 h -1.206 v 1.17 c 0,1.261 -1.03,2.29 -2.291,2.29 H -14.18 c -1.259,0 -2.29,-1.029 -2.29,-2.29 v -1.17 h -1.207 v 1.894 c 0,1.459 1.195,2.653 2.654,2.653"
           style="fill:#8a7422;fill-opacity:1;fill-rule:evenodd;stroke:none"
           id="path200" />
      </g>
      <g
         id="g202"
         transform="translate(-16.802351,-171.92306)">
        <g
           id="g204" />
        <g
           id="g224">
          <g
             clip-path="url(#clipPath208-3)"
             opacity="0.5"
             id="g222">
            <g
               id="g220">
              <g
                 clip-path="url(#clipPath212-7)"
                 id="g218">
                <g
                   transform="translate(246.3135,273.1738)"
                   id="g216">
                  <path
                     d="m 0,0 c 0.754,-0.813 4.366,-1.431 8.708,-1.431 4.34,0 7.951,0.618 8.706,1.431 l 0.145,-0.514 V -39.34 c 0,-3.656 -3.983,-6.648 -8.851,-6.648 -4.87,0 -8.854,2.992 -8.854,6.648 v 39.113 z"
                     style="fill:#ffffff;fill-opacity:1;fill-rule:evenodd;stroke:none"
                     id="path214" />
                </g>
              </g>
            </g>
          </g>
        </g>
      </g>
      <g
         id="g226"
         transform="translate(229.36615,100.74004)">
        <path
           d="m 0,0 h 0.002 c 0.09,-0.933 4.019,-1.683 8.851,-1.683 4.83,0 8.758,0.75 8.849,1.683 h 0.002 v -38.943 c 0,-3.595 -3.983,-6.535 -8.851,-6.535 -4.87,0 -8.853,2.94 -8.853,6.535 z"
           style="fill:#ca6c38;fill-opacity:1;fill-rule:evenodd;stroke:none"
           id="path228" />
      </g>
      <g
         id="g230"
         transform="translate(233.03845,64.421642)">
        <path
           d="m 0,0 c -0.488,0 -0.884,-0.527 -0.884,-1.178 0,-0.651 0.396,-1.178 0.884,-1.178 0.488,0 0.884,0.527 0.884,1.178 C 0.884,-0.527 0.488,0 0,0 m 2.215,3.489 c -0.454,0 -0.823,-0.478 -0.823,-1.068 0,-0.59 0.369,-1.068 0.823,-1.068 0.454,0 0.822,0.478 0.822,1.068 0,0.59 -0.368,1.068 -0.822,1.068 M -1.184,27.006 C -1.226,26.269 -1.707,25.687 -2.292,25.687 V -1.55 c 0,-1.721 0.881,-3.281 2.291,-4.396 0.37,1.189 1.389,2.043 2.586,2.043 1.511,0 2.736,-1.358 2.736,-3.032 0,-0.252 -0.028,-0.496 -0.08,-0.729 4.081,0.027 7.411,2.768 7.411,6.114 V 26.166 C 10.92,23.507 8.417,21.83 6.026,21.796 c -2.725,-0.039 -5.584,1.983 -7.21,5.21 m -0.972,2.657 c -0.047,0.023 -0.092,0.045 -0.136,0.072 v -1.197 c 0.189,0 0.367,-0.06 0.522,-0.168 -0.148,0.418 -0.28,0.848 -0.386,1.293 m 1.455,5.406 0.013,-0.002 0.09,-0.014 0.012,-0.002 0.093,-0.017 0.011,-0.002 0.094,-0.013 0.106,-0.018 0.011,-0.002 0.097,-0.014 0.01,-0.002 0.018,-0.002 C 0.063,34.95 0.279,34.922 0.502,34.895 l 0.006,-0.001 c 1.354,-0.165 2.956,-0.258 4.672,-0.258 1.715,0 3.315,0.093 4.672,0.258 v 0 c 1.115,0.135 2.063,0.316 2.773,0.529 l 0.011,0.004 0.096,0.03 0.057,0.018 0.025,0.008 0.068,0.023 0.061,0.021 0.052,0.019 0.034,0.012 0.011,0.005 0.062,0.022 0.044,0.019 0.021,0.008 c 0.054,0.022 0.106,0.044 0.156,0.067 l 0.018,0.008 0.043,0.019 0.051,0.025 h 10e-4 l 0.033,0.018 0.046,0.025 0.01,0.005 c 0.019,0.011 0.038,0.021 0.056,0.032 l 0.024,0.014 c 0.018,0.01 0.034,0.02 0.049,0.029 l 0.002,0.003 0.002,10e-4 c 0.02,0.013 0.038,0.026 0.056,0.038 l 0.007,0.004 c 0.032,0.023 0.061,0.046 0.09,0.07 l 0.015,0.013 c 0.014,0.012 0.025,0.024 0.037,0.035 l 0.009,0.007 c 0.009,0.011 0.018,0.021 0.028,0.031 l 0.007,0.009 c 0.022,0.026 0.041,0.05 0.058,0.077 l 0.004,0.007 c 0.008,0.012 0.015,0.026 0.021,0.038 l 0.002,0.005 c 0.007,0.012 0.013,0.026 0.017,0.039 h 10e-4 c 0.005,0.014 0.009,0.027 0.011,0.041 l 0.002,0.008 c 0.002,0.012 0.005,0.026 0.006,0.038 h 0.002 V 28.956 -2.625 c 0,-3.595 -3.982,-6.534 -8.851,-6.534 -0.242,0 -0.481,0.006 -0.716,0.021 l -0.112,0.006 c -0.057,0.005 -0.113,0.01 -0.169,0.014 L 4.136,-9.114 C 4.089,-9.11 4.045,-9.106 4,-9.101 l -0.075,0.007 -0.009,10e-4 c -0.351,0.037 -0.693,0.09 -1.026,0.156 l -0.014,0.004 -0.072,0.014 -0.118,0.025 -0.05,0.011 C 2.45,-8.841 2.267,-8.796 2.087,-8.746 l -0.069,0.02 c -3.32,0.944 -5.691,3.329 -5.691,6.101 v 38.943 m 0,0 h 0.003 c 0.031,-0.326 0.533,-0.63 1.38,-0.887 0.384,-0.118 0.839,-0.225 1.353,-0.319 l 0.037,-0.008 0.012,-10e-4"
           style="fill:#c1472e;fill-opacity:1;fill-rule:evenodd;stroke:none"
           id="path232" />
      </g>
      <g
         id="g234"
         transform="translate(245.69035,99.853342)">
        <path
           d="m 0,0 v -41.55 c -0.694,-0.804 -1.617,-1.488 -2.701,-2.004 v 43.03 C -1.617,-0.39 -0.693,-0.21 0,0"
           style="fill:#d69753;fill-opacity:1;fill-rule:evenodd;stroke:none"
           id="path236" />
      </g>
      <g
         id="g238"
         transform="translate(240.45255,99.112142)">
        <path
           d="m 0,0 v -43.639 c -0.34,-0.064 -0.687,-0.116 -1.041,-0.151 V -0.039 C -0.687,-0.029 -0.34,-0.016 0,0"
           style="fill:#d69753;fill-opacity:1;fill-rule:evenodd;stroke:none"
           id="path240" />
      </g>
      <g
         id="g242"
         transform="translate(246.49745,100.16484)">
        <path
           d="m 0,0 c 1.389,-6.989 -3.215,-12.893 -7.413,-12.953 -4.152,-0.06 -8.66,5.397 -7.104,12.344 1.601,-0.307 3.804,-0.498 6.238,-0.498 3.784,0 7.012,0.461 8.279,1.107"
           style="fill:#232020;fill-opacity:1;fill-rule:evenodd;stroke:none"
           id="path244" />
      </g>
      <g
         id="g246"
         transform="translate(245.87005,99.272242)">
        <path
           d="m 0,0 c 1.52,-5.992 -2.789,-11.125 -6.722,-11.18 -3.936,-0.057 -8.228,4.789 -6.415,10.862 0.785,-0.28 1.762,-0.5 2.867,-0.647 -0.004,-0.08 -0.01,-0.16 -0.011,-0.241 -0.053,-2.382 1.658,-4.29 3.823,-4.258 2.164,0.03 3.962,1.987 4.016,4.371 0.003,0.124 0.002,0.249 -0.006,0.37 C -1.502,-0.53 -0.671,-0.285 0,0"
           style="fill:#e1e1e2;fill-opacity:1;fill-rule:evenodd;stroke:none"
           id="path248" />
      </g>
      <g
         id="g250"
         transform="translate(-16.802351,-171.92306)">
        <g
           id="g252" />
        <g
           id="g272">
          <g
             clip-path="url(#clipPath256-3)"
             opacity="0.5"
             id="g270">
            <g
               id="g268">
              <g
                 clip-path="url(#clipPath260-6)"
                 id="g266">
                <g
                   transform="translate(258.7837,269.3281)"
                   id="g264">
                  <path
                     d="M 0,0 C 0.158,-0.013 0.271,-0.286 0.254,-0.613 0.237,-0.939 0.095,-1.193 -0.062,-1.182 -0.219,-1.17 -0.333,-0.895 -0.315,-0.568 -0.297,-0.242 -0.157,0.012 0,0"
                     style="fill:#e6e7e7;fill-opacity:1;fill-rule:evenodd;stroke:none"
                     id="path262" />
                </g>
              </g>
            </g>
          </g>
        </g>
      </g>
      <g
         id="g274"
         transform="translate(243.92075,97.672642)">
        <path
           d="m 0,0 c -0.181,-2.623 -2.146,-4.738 -4.49,-4.779 -2.352,-0.041 -4.222,2.024 -4.271,4.655 -0.576,0.106 -1.096,0.235 -1.547,0.384 -1.602,-4.936 2.277,-8.914 5.814,-8.893 3.534,0.021 7.074,4.422 5.992,9.067 C 1.067,0.271 0.563,0.125 0,0 M 1.949,1.6 C 3.469,-4.393 -0.839,-9.525 -4.772,-9.58 -8.708,-9.638 -13,-4.791 -11.188,1.28 -10.495,1.035 -9.653,0.834 -8.706,0.689 -8.58,0.671 -8.45,0.652 -8.321,0.636 -8.326,0.555 -8.331,0.475 -8.332,0.394 c -0.053,-2.382 1.659,-4.29 3.823,-4.258 2.165,0.03 3.963,1.987 4.016,4.371 0.003,0.124 0,0.249 -0.006,0.372 0.164,0.033 0.326,0.067 0.483,0.103 0.748,0.174 1.411,0.382 1.965,0.618"
           style="fill:#919397;fill-opacity:1;fill-rule:evenodd;stroke:none"
           id="path276" />
      </g>
      <g
         id="g278"
         transform="translate(238.24895,99.303542)">
        <path
           d="M 0,0 C 4.875,0 8.852,0.771 8.852,1.715 8.852,2.66 4.875,3.432 0,3.432 -4.876,3.432 -8.852,2.66 -8.852,1.715 -8.852,0.771 -4.876,0 0,0"
           style="fill:#c5583c;fill-opacity:1;fill-rule:evenodd;stroke:none"
           id="path280" />
      </g>
      <g
         id="g282"
         transform="translate(239.36565,102.19804)">
        <path
           d="m 0,0 c 3.979,0 7.203,-0.533 7.203,-1.19 0,-0.658 -3.224,-1.19 -7.203,-1.19 -3.978,0 -7.203,0.532 -7.203,1.19 C -7.203,-0.533 -3.978,0 0,0"
           style="fill:#d48b53;fill-opacity:1;fill-rule:evenodd;stroke:none"
           id="path284" />
      </g>
      <g
         id="g286"
         transform="translate(244.73425,101.67754)">
        <path
           d="M 0,0 C 0.995,0 1.807,1.067 1.807,2.376 1.807,3.683 0.995,4.749 0,4.749 -0.995,4.749 -1.808,3.683 -1.808,2.376 -1.808,1.067 -0.995,0 0,0"
           style="fill:#ca6c38;fill-opacity:1;fill-rule:evenodd;stroke:none"
           id="path288" />
      </g>
      <g
         id="g290"
         transform="translate(240.65565,105.49684)">
        <path
           d="M 0,0 C 0.625,0 1.136,0.709 1.136,1.576 1.136,2.442 0.625,3.15 0,3.15 -0.625,3.15 -1.136,2.442 -1.136,1.576 -1.136,0.709 -0.625,0 0,0"
           style="fill:#ca6c38;fill-opacity:1;fill-rule:evenodd;stroke:none"
           id="path292" />
      </g>
      <g
         id="g294"
         transform="translate(244.78555,109.47344)">
        <path
           d="M 0,0 C 0.483,0 0.878,0.591 0.878,1.315 0.878,2.041 0.483,2.632 0,2.632 -0.483,2.632 -0.877,2.041 -0.877,1.315 -0.877,0.591 -0.483,0 0,0"
           style="fill:#ca6c38;fill-opacity:1;fill-rule:evenodd;stroke:none"
           id="path296" />
      </g>
      <g
         id="g298"
         transform="translate(240.60385,112.51934)">
        <path
           d="M 0,0 C 0.483,0 0.878,0.532 0.878,1.187 0.878,1.841 0.483,2.374 0,2.374 -0.483,2.374 -0.877,1.841 -0.877,1.187 -0.877,0.532 -0.483,0 0,0"
           style="fill:#ca6c38;fill-opacity:1;fill-rule:evenodd;stroke:none"
           id="path300" />
      </g>
    </g>
  </g>
</svg>
